<?xml version="1.0" encoding="UTF-8" standalone="no"?>
<!DOCTYPE svg PUBLIC "-//W3C//DTD SVG 1.1//EN" "http://www.w3.org/Graphics/SVG/1.1/DTD/svg11.dtd">
<svg width="100%" height="100%" viewBox="0 0 128 128" version="1.1" xmlns="http://www.w3.org/2000/svg" xmlns:xlink="http://www.w3.org/1999/xlink" xml:space="preserve" xmlns:serif="http://www.serif.com/" style="fill-rule:evenodd;clip-rule:evenodd;stroke-linejoin:round;stroke-miterlimit:2;">
    <path d="M64,62L64,104L8,104L8,24L20,24L20,48L32,24L44,24L29.011,54.072L44,84L32,84L20,60L20,92L52,92C52,92 52.095,88 52,44C51.976,33.089 61.089,24 72,24L100,24L100,84C100,89.154 103.26,92 108,92L120,92L120,104L108,104C96.829,104 88,95.171 88,84L88,36C80.675,35.993 72.077,36 72,36C67.503,36 64,39.503 64,44C64,52 64,50 64,50L80,50L80,62L64,62Z" style="fill:white;"/>
    <path d="M26,18.708C27.497,17.011 29.672,16 32,16L44,16C46.771,16 49.344,17.434 50.803,19.79C51.7,21.239 52.096,22.91 51.98,24.559C57.096,19.302 64.22,16 72,16L100,16C104.418,16 108,19.582 108,24L108,84L120,84C124.418,84 128,87.582 128,92L128,104C128,108.418 124.418,112 120,112L108,112C92.36,112 80,99.64 80,84L80,70L72,70L72,104C72,108.418 68.418,112 64,112L8,112C3.582,112 -0,108.418 -0,104L-0,24C-0,19.582 3.582,16 8,16L20,16C22.389,16 24.534,17.047 26,18.708ZM64,62L80,62L80,50L64,50L64,44C64,39.503 67.503,36 72,36C72.077,36 80.675,35.993 88,36L88,84C88,95.171 96.829,104 108,104L120,104L120,92L108,92C103.26,92 100,89.154 100,84L100,24L72,24C61.089,24 51.976,33.089 52,44C52.095,88 52,92 52,92L20,92L20,60L32,84L44,84L29.011,54.072L44,24L32,24L20,48L20,24L8,24L8,104L64,104L64,62ZM44.089,41.756L37.954,54.064L44.037,66.209C44.031,60.274 44.019,52.979 44,44.017C43.998,43.257 44.028,42.502 44.089,41.756Z"/>
</svg>
