<?xml version="1.0" encoding="UTF-8" standalone="no"?>
<!DOCTYPE svg PUBLIC "-//W3C//DTD SVG 1.1//EN" "http://www.w3.org/Graphics/SVG/1.1/DTD/svg11.dtd">
<svg width="100%" height="100%" viewBox="0 0 152 104" version="1.1" xmlns="http://www.w3.org/2000/svg" xmlns:xlink="http://www.w3.org/1999/xlink" xml:space="preserve" xmlns:serif="http://www.serif.com/" style="fill-rule:evenodd;clip-rule:evenodd;stroke-linejoin:round;stroke-miterlimit:2;">
    <g transform="matrix(1,0,0,1,-201.616,-353.161)">
        <g transform="matrix(1,0,0,1,0,130)">
            <path d="M282.899,307.566L283.016,307.566L283.016,326.565L201.616,326.565L201.616,224.099L222.761,224.099L222.761,248.043L234.614,224.099L256.332,224.099L237.583,261.337L256.228,300.19L232.479,300.19L222.761,276.476L222.761,307.566L263.421,307.566L263.421,251.077C263.421,246.112 264.271,241.876 265.972,238.369C268.125,233.89 271.398,230.236 275.79,227.406C280.182,224.576 284.756,223.161 289.513,223.161L330.596,223.214L330.596,229.063L330.746,229.099L330.746,299.337C330.746,302.635 331.276,304.831 332.335,305.925C333.394,307.019 335.486,307.566 338.611,307.566L352.704,307.566L352.704,326.19L334.08,326.19C326.372,326.19 320.365,324.942 316.06,320.445C311.754,315.949 309.602,310.708 309.602,302.722L309.602,243.59C300,243.581 290.708,243.577 290.607,243.577C288.142,243.577 286.241,244.393 284.904,246.025C283.567,247.657 282.899,249.983 282.899,253.004L282.899,259.775L301.596,259.775L301.596,280.191L282.899,280.191L282.899,307.566Z" style="fill:white;"/>
        </g>
    </g>
</svg>
