<?xml version="1.0" encoding="UTF-8" standalone="no"?>
<!DOCTYPE svg PUBLIC "-//W3C//DTD SVG 1.1//EN" "http://www.w3.org/Graphics/SVG/1.1/DTD/svg11.dtd">
<svg width="100%" height="100%" viewBox="0 0 622 123" version="1.1" xmlns="http://www.w3.org/2000/svg" xmlns:xlink="http://www.w3.org/1999/xlink" xml:space="preserve" xmlns:serif="http://www.serif.com/" style="fill-rule:evenodd;clip-rule:evenodd;stroke-linejoin:round;stroke-miterlimit:2;">
    <g transform="matrix(1,0,0,1,-141.758,-95.7782)">
        <g transform="matrix(1,0,0,1,-1,0)">
            <path d="M379.558,165.61L379.558,218.422L142.758,218.422L142.758,95.778L167.934,95.778L167.934,131.678L186.382,95.778L212.24,95.778L189.916,143.162L212.116,189.422L185.055,189.525L167.934,156.212L167.934,197.267L356.366,197.267L356.366,129.899C356.366,123.988 357.379,118.944 359.404,114.769C361.967,109.436 365.864,105.085 371.093,101.716C376.323,98.347 381.769,96.662 387.433,96.662L537.913,96.724L537.913,96.778L560.688,96.778L560.688,187.068C560.688,190.996 561.319,193.61 562.579,194.913C563.84,196.215 566.331,196.866 570.052,196.866L764.755,196.866L764.755,218.422L564.657,218.422C555.479,218.422 548.328,215.745 543.201,210.392C538.075,205.038 535.512,197.607 535.512,188.099L535.512,118.023C516.345,117.988 388.965,117.97 388.735,117.97C385.8,117.97 383.537,118.941 381.945,120.884C380.353,122.827 379.558,125.597 379.558,129.194L379.558,141.302L394.913,141.302L394.913,165.61L379.558,165.61ZM277.506,139.008C281.929,145.126 284.141,151.616 284.141,158.479C284.141,167.326 280.957,174.901 274.591,181.205C268.225,187.51 260.577,190.662 251.647,190.662C243.545,190.662 236.31,187.934 229.944,182.477L221.138,190.538L217.542,186.755L226.347,178.694C221.511,172.534 219.092,165.796 219.092,158.479C219.092,149.508 222.244,141.912 228.549,135.69C234.853,129.468 242.553,126.358 251.647,126.358C260.411,126.358 267.894,129.272 274.095,135.101L282.156,127.722L285.691,131.504L277.506,139.008ZM260.639,154.448L246.625,167.284C248.32,168.194 249.994,168.648 251.647,168.648C254.334,168.648 256.639,167.656 258.562,165.672C260.484,163.688 261.445,161.29 261.445,158.479C261.445,157.321 261.176,155.978 260.639,154.448ZM243.09,163.44L257.476,150.293C255.451,149.012 253.487,148.371 251.585,148.371C248.857,148.371 246.542,149.353 244.64,151.317C242.739,153.28 241.788,155.688 241.788,158.541C241.788,160.153 242.222,161.786 243.09,163.44ZM327.796,126.978L327.796,151.782C326.183,150.872 324.716,150.418 323.393,150.418C319.176,150.418 317.068,153.642 317.068,160.091L317.068,189.422L293.876,189.422L293.876,155.626C293.876,146.697 296.315,139.576 301.193,134.264C306.072,128.952 312.583,126.296 320.727,126.296C322.546,126.296 324.902,126.523 327.796,126.978ZM436.414,126.296C445.178,126.296 452.691,129.448 458.954,135.752C465.217,142.056 468.349,149.611 468.349,158.417C468.349,167.346 465.176,174.953 458.83,181.236C452.485,187.52 444.826,190.662 435.856,190.662C426.885,190.662 419.216,187.51 412.85,181.205C406.484,174.901 403.3,167.305 403.3,158.417C403.3,149.363 406.484,141.746 412.85,135.566C419.216,129.386 427.071,126.296 436.414,126.296ZM435.794,149.177C433.313,149.177 431.205,150.076 429.469,151.875C427.732,153.673 426.864,155.874 426.864,158.479C426.864,161.042 427.743,163.233 429.5,165.052C431.257,166.871 433.355,167.78 435.794,167.78C438.274,167.78 440.393,166.871 442.15,165.052C443.907,163.233 444.785,161.042 444.785,158.479C444.785,155.874 443.917,153.673 442.181,151.875C440.444,150.076 438.315,149.177 435.794,149.177ZM511.942,126.978L511.942,151.782C510.33,150.872 508.862,150.418 507.539,150.418C503.323,150.418 501.214,153.642 501.214,160.091L501.214,189.422L478.022,189.422L478.022,155.626C478.022,146.697 480.461,139.576 485.34,134.264C490.218,128.952 496.729,126.296 504.873,126.296C506.692,126.296 509.048,126.523 511.942,126.978ZM594.305,127.598L594.305,189.422L571.113,189.422L571.113,127.598L594.305,127.598ZM582.771,100.003C585.913,100.003 588.631,101.109 590.925,103.321C593.22,105.533 594.367,108.147 594.367,111.165C594.367,114.39 593.282,117.035 591.111,119.102C588.941,121.169 586.161,122.203 582.771,122.203C579.381,122.203 576.601,121.169 574.431,119.102C572.26,117.035 571.175,114.39 571.175,111.165C571.175,108.147 572.322,105.533 574.617,103.321C576.911,101.109 579.629,100.003 582.771,100.003ZM654.392,127.598L625.496,191.84L596.971,127.598L619.109,127.598L625.682,144.279L632.875,127.598L654.392,127.598ZM717.643,162.261L682.483,162.261C681.946,160.484 681.677,158.851 681.677,157.363C681.677,155.296 682.049,153.27 682.793,151.286L694.575,151.286C693.748,146.697 691.164,144.403 686.824,144.403C683.93,144.403 681.573,145.632 679.755,148.092C677.936,150.552 677.026,153.704 677.026,157.549C677.026,161.559 677.905,164.804 679.662,167.284C681.418,169.765 683.723,171.005 686.576,171.005C688.891,171.005 691.123,169.847 693.273,167.532L706.481,183.407C700.321,188.244 693.479,190.662 685.956,190.662C676.778,190.662 669.068,187.582 662.826,181.423C656.583,175.263 653.462,167.636 653.462,158.541C653.462,149.487 656.614,141.839 662.919,135.597C669.223,129.355 676.964,126.234 686.142,126.234C695.112,126.234 702.647,129.282 708.744,135.38C714.842,141.478 717.891,148.991 717.891,157.921C717.891,158.83 717.808,160.277 717.643,162.261ZM747.904,104.778L747.904,128.466L764.755,128.466L764.755,152.96L747.904,152.96C747.904,157.879 748.679,161.269 750.229,163.13C751.779,164.99 753.74,166.412 764.755,165.92L764.755,190.29C763.556,190.331 756.668,190.352 756.089,190.352C750.839,190.352 745.888,189.132 741.237,186.693C736.587,184.254 732.856,180.947 730.045,176.772C726.489,171.439 724.712,164.37 724.712,155.564L724.712,104.778L747.904,104.778Z" style="fill:white;"/>
        </g>
    </g>
</svg>
