<?xml version="1.0" encoding="UTF-8" standalone="no"?>
<!DOCTYPE svg PUBLIC "-//W3C//DTD SVG 1.1//EN" "http://www.w3.org/Graphics/SVG/1.1/DTD/svg11.dtd">
<svg width="100%" height="100%" viewBox="0 0 642 142" version="1.1" xmlns="http://www.w3.org/2000/svg" xmlns:xlink="http://www.w3.org/1999/xlink" xml:space="preserve" xmlns:serif="http://www.serif.com/" style="fill-rule:evenodd;clip-rule:evenodd;stroke-linejoin:round;stroke-miterlimit:2;">
    <g transform="matrix(1,0,0,1,-132,-86)">
        <g transform="matrix(1,0,0,1,-1,0)">
            <g id="logo">
                <path d="M379.558,165.61L379.558,218.422L142.758,218.422L142.758,95.778L167.934,95.778L167.934,131.678L186.382,95.778L212.24,95.778L189.916,143.162L212.116,189.422L185.055,189.525L167.934,156.212L167.934,197.267L356.366,197.267L356.366,129.899C356.366,123.988 357.379,118.944 359.404,114.769C361.967,109.436 365.864,105.085 371.093,101.716C376.323,98.347 381.769,96.662 387.433,96.662L537.913,96.724L537.913,96.778L560.688,96.778L560.688,187.068C560.688,190.996 561.319,193.61 562.579,194.913C563.84,196.215 566.331,196.866 570.052,196.866L764.755,196.866L764.755,218.422L564.657,218.422C555.479,218.422 548.328,215.745 543.201,210.392C538.075,205.038 535.512,197.607 535.512,188.099L535.512,118.023C516.345,117.988 388.965,117.97 388.735,117.97C385.8,117.97 383.537,118.941 381.945,120.884C380.353,122.827 379.558,125.597 379.558,129.194L379.558,141.302L394.913,141.302L394.913,165.61L379.558,165.61ZM277.506,139.008C281.929,145.126 284.141,151.616 284.141,158.479C284.141,167.326 280.957,174.901 274.591,181.205C268.225,187.51 260.577,190.662 251.647,190.662C243.545,190.662 236.31,187.934 229.944,182.477L221.138,190.538L217.542,186.755L226.347,178.694C221.511,172.534 219.092,165.796 219.092,158.479C219.092,149.508 222.244,141.912 228.549,135.69C234.853,129.468 242.553,126.358 251.647,126.358C260.411,126.358 267.894,129.272 274.095,135.101L282.156,127.722L285.691,131.504L277.506,139.008ZM260.639,154.448L246.625,167.284C248.32,168.194 249.994,168.648 251.647,168.648C254.334,168.648 256.639,167.656 258.562,165.672C260.484,163.688 261.445,161.29 261.445,158.479C261.445,157.321 261.176,155.978 260.639,154.448ZM243.09,163.44L257.476,150.293C255.451,149.012 253.487,148.371 251.585,148.371C248.857,148.371 246.542,149.353 244.64,151.317C242.739,153.28 241.788,155.688 241.788,158.541C241.788,160.153 242.222,161.786 243.09,163.44ZM327.796,126.978L327.796,151.782C326.183,150.872 324.716,150.418 323.393,150.418C319.176,150.418 317.068,153.642 317.068,160.091L317.068,189.422L293.876,189.422L293.876,155.626C293.876,146.697 296.315,139.576 301.193,134.264C306.072,128.952 312.583,126.296 320.727,126.296C322.546,126.296 324.902,126.523 327.796,126.978ZM436.414,126.296C445.178,126.296 452.691,129.448 458.954,135.752C465.217,142.056 468.349,149.611 468.349,158.417C468.349,167.346 465.176,174.953 458.83,181.236C452.485,187.52 444.826,190.662 435.856,190.662C426.885,190.662 419.216,187.51 412.85,181.205C406.484,174.901 403.3,167.305 403.3,158.417C403.3,149.363 406.484,141.746 412.85,135.566C419.216,129.386 427.071,126.296 436.414,126.296ZM435.794,149.177C433.313,149.177 431.205,150.076 429.469,151.875C427.732,153.673 426.864,155.874 426.864,158.479C426.864,161.042 427.743,163.233 429.5,165.052C431.257,166.871 433.355,167.78 435.794,167.78C438.274,167.78 440.393,166.871 442.15,165.052C443.907,163.233 444.785,161.042 444.785,158.479C444.785,155.874 443.917,153.673 442.181,151.875C440.444,150.076 438.315,149.177 435.794,149.177ZM511.942,126.978L511.942,151.782C510.33,150.872 508.862,150.418 507.539,150.418C503.323,150.418 501.214,153.642 501.214,160.091L501.214,189.422L478.022,189.422L478.022,155.626C478.022,146.697 480.461,139.576 485.34,134.264C490.218,128.952 496.729,126.296 504.873,126.296C506.692,126.296 509.048,126.523 511.942,126.978ZM594.305,127.598L594.305,189.422L571.113,189.422L571.113,127.598L594.305,127.598ZM582.771,100.003C585.913,100.003 588.631,101.109 590.925,103.321C593.22,105.533 594.367,108.147 594.367,111.165C594.367,114.39 593.282,117.035 591.111,119.102C588.941,121.169 586.161,122.203 582.771,122.203C579.381,122.203 576.601,121.169 574.431,119.102C572.26,117.035 571.175,114.39 571.175,111.165C571.175,108.147 572.322,105.533 574.617,103.321C576.911,101.109 579.629,100.003 582.771,100.003ZM654.392,127.598L625.496,191.84L596.971,127.598L619.109,127.598L625.682,144.279L632.875,127.598L654.392,127.598ZM717.643,162.261L682.483,162.261C681.946,160.484 681.677,158.851 681.677,157.363C681.677,155.296 682.049,153.27 682.793,151.286L694.575,151.286C693.748,146.697 691.164,144.403 686.824,144.403C683.93,144.403 681.573,145.632 679.755,148.092C677.936,150.552 677.026,153.704 677.026,157.549C677.026,161.559 677.905,164.804 679.662,167.284C681.418,169.765 683.723,171.005 686.576,171.005C688.891,171.005 691.123,169.847 693.273,167.532L706.481,183.407C700.321,188.244 693.479,190.662 685.956,190.662C676.778,190.662 669.068,187.582 662.826,181.423C656.583,175.263 653.462,167.636 653.462,158.541C653.462,149.487 656.614,141.839 662.919,135.597C669.223,129.355 676.964,126.234 686.142,126.234C695.112,126.234 702.647,129.282 708.744,135.38C714.842,141.478 717.891,148.991 717.891,157.921C717.891,158.83 717.808,160.277 717.643,162.261ZM747.904,104.778L747.904,128.466L764.755,128.466L764.755,152.96L747.904,152.96C747.904,157.879 748.679,161.269 750.229,163.13C751.779,164.99 753.74,166.412 764.755,165.92L764.755,190.29C763.556,190.331 756.668,190.352 756.089,190.352C750.839,190.352 745.888,189.132 741.237,186.693C736.587,184.254 732.856,180.947 730.045,176.772C726.489,171.439 724.712,164.37 724.712,155.564L724.712,104.778L747.904,104.778Z" style="fill:white;"/>
                <path d="M214.239,184.008C216.957,181.52 220.695,178.098 220.695,178.098C216.776,172.029 214.836,165.485 214.836,158.479C214.836,148.314 218.415,139.71 225.559,132.661C232.681,125.632 241.373,122.101 251.647,122.101C260.168,122.101 267.612,124.551 273.987,129.429L282.39,121.738L291.735,131.738L283.056,139.693C286.632,145.653 288.397,151.92 288.397,158.479C288.397,168.502 284.799,177.088 277.586,184.23C273.43,188.346 268.79,191.272 263.668,193.011L289.62,193.011L289.62,155.626C289.62,145.476 292.513,137.423 298.058,131.385C303.728,125.211 311.261,122.039 320.727,122.039C322.715,122.039 325.293,122.276 328.456,122.773L332.052,123.338L332.052,159.07L325.704,155.489C324.847,155.005 324.096,154.674 323.393,154.674C322.472,154.674 322.012,155.32 321.736,156.306C321.445,157.344 321.324,158.608 321.324,160.091L321.324,193.011L352.11,193.011L352.11,129.899C352.11,123.258 353.299,117.602 355.568,112.925C358.47,106.888 362.868,101.952 368.788,98.138C374.752,94.295 380.974,92.406 387.434,92.406L537.913,92.468L537.967,92.522L564.945,92.522L564.945,187.068C564.945,188.632 565.048,189.936 565.299,190.977C565.399,191.391 565.438,191.746 565.637,191.952C565.814,192.134 566.121,192.168 566.47,192.259C566.595,192.292 566.724,192.322 566.857,192.35L566.857,123.341L572.855,123.341C572.384,122.985 571.931,122.6 571.495,122.185C568.476,119.31 566.919,115.65 566.919,111.165C566.919,106.974 568.476,103.328 571.663,100.256C574.787,97.244 578.492,95.747 582.771,95.747C587.05,95.747 590.755,97.244 593.879,100.256C597.065,103.328 598.623,106.974 598.623,111.165C598.623,115.65 597.065,119.31 594.047,122.185C593.611,122.6 593.158,122.985 592.687,123.341L622.006,123.341L625.859,133.118L630.075,123.341L660.974,123.341L629.817,192.609L672.466,192.609C667.789,190.869 663.581,188.147 659.836,184.452C652.765,177.474 649.206,168.844 649.206,158.541C649.206,148.292 652.787,139.639 659.924,132.573C667.044,125.523 675.777,121.977 686.142,121.977C696.311,121.977 704.842,125.458 711.754,132.37C715.882,136.499 718.786,141.196 720.455,146.466L720.455,100.522L752.16,100.522L752.16,104.778L752.16,124.21L769.012,124.21L769.012,157.216C769.012,157.216 752.365,157.216 752.365,157.216C752.551,158.607 752.893,159.677 753.499,160.405C753.94,160.935 754.517,161.251 755.985,161.48C757.862,161.773 760.555,161.847 764.566,161.668L769.012,161.469L769.012,222.678L564.657,222.678C554.141,222.678 546.001,219.469 540.127,213.335C534.312,207.262 531.256,198.885 531.256,188.099C531.256,188.099 531.256,122.274 531.256,122.274C526.07,122.268 518.169,122.263 508.691,122.258C509.876,122.379 511.18,122.549 512.603,122.773L516.198,123.338L516.198,159.07L509.851,155.489C508.993,155.005 508.243,154.674 507.539,154.674C506.618,154.674 506.158,155.32 505.882,156.306C505.591,157.344 505.471,158.608 505.471,160.091L505.471,193.678L473.766,193.678L473.766,155.626C473.766,145.476 476.659,137.423 482.205,131.385C487.02,126.141 493.18,123.063 500.726,122.255C482.492,122.247 460.234,122.241 440.379,122.236C448.636,123.072 455.836,126.574 461.974,132.752C469.065,139.89 472.605,148.447 472.605,158.417C472.605,168.53 469.012,177.144 461.825,184.261C454.652,191.364 445.996,194.918 435.856,194.918C425.717,194.918 417.05,191.355 409.855,184.23C403.422,177.86 399.863,170.324 399.17,161.625L399.17,169.866L383.814,169.866L383.814,222.678L138.501,222.678L138.501,91.522L172.19,91.522L172.19,114.082L183.783,91.522L218.95,91.522L194.629,143.145L214.239,184.008ZM277.506,139.008L285.691,131.504L282.156,127.722L274.095,135.101C267.894,129.272 260.411,126.358 251.647,126.358C242.553,126.358 234.853,129.468 228.549,135.69C222.244,141.912 219.092,149.508 219.092,158.479C219.092,165.796 221.511,172.534 226.347,178.694L217.542,186.755L221.138,190.538L229.944,182.477C236.31,187.934 243.545,190.662 251.647,190.662C260.577,190.662 268.225,187.51 274.591,181.205C280.957,174.901 284.141,167.326 284.141,158.479C284.141,151.616 281.929,145.126 277.506,139.008ZM243.09,163.44C242.222,161.786 241.788,160.153 241.788,158.541C241.788,155.688 242.739,153.28 244.64,151.317C246.542,149.353 248.857,148.371 251.585,148.371C253.487,148.371 255.451,149.012 257.476,150.293L243.09,163.44ZM260.639,154.448C261.176,155.978 261.445,157.321 261.445,158.479C261.445,161.29 260.484,163.688 258.562,165.672C256.639,167.656 254.334,168.648 251.647,168.648C249.994,168.648 248.32,168.194 246.625,167.284L260.639,154.448ZM621.18,192.609L598.561,141.667L598.561,192.609L621.18,192.609ZM327.796,126.978C324.902,126.523 322.546,126.296 320.727,126.296C312.583,126.296 306.072,128.952 301.193,134.264C296.315,139.576 293.876,146.697 293.876,155.626L293.876,189.422L317.068,189.422L317.068,160.091C317.068,153.642 319.176,150.418 323.393,150.418C324.716,150.418 326.183,150.872 327.796,151.782L327.796,126.978ZM687.726,166.518L685.22,166.518C685.638,166.67 686.089,166.748 686.576,166.748C686.972,166.748 687.353,166.668 687.726,166.518ZM182.061,193.011L172.19,173.806L172.19,193.011L182.061,193.011ZM582.771,100.003C579.629,100.003 576.911,101.109 574.617,103.321C572.322,105.533 571.175,108.147 571.175,111.165C571.175,114.39 572.26,117.035 574.431,119.102C576.601,121.169 579.381,122.203 582.771,122.203C586.161,122.203 588.941,121.169 591.111,119.102C593.282,117.035 594.367,114.39 594.367,111.165C594.367,108.147 593.22,105.533 590.925,103.321C588.631,101.109 585.913,100.003 582.771,100.003ZM379.558,165.61L394.913,165.61L394.913,141.302L379.558,141.302L379.558,129.194C379.558,125.597 380.353,122.827 381.945,120.884C383.537,118.941 385.8,117.97 388.735,117.97C388.965,117.97 516.345,117.988 535.512,118.023L535.512,188.099C535.512,197.607 538.075,205.038 543.201,210.392C548.328,215.745 555.479,218.422 564.657,218.422L764.755,218.422L764.755,196.866L570.052,196.866C566.331,196.866 563.84,196.215 562.579,194.913C561.319,193.61 560.688,190.996 560.688,187.068L560.688,96.778L537.913,96.778L537.913,96.724L387.433,96.662C381.769,96.662 376.323,98.347 371.093,101.716C365.864,105.085 361.967,109.436 359.404,114.769C357.379,118.944 356.366,123.988 356.366,129.899L356.366,197.267L167.934,197.267L167.934,156.212L185.055,189.525L212.116,189.422L189.916,143.162L212.24,95.778L186.382,95.778L167.934,131.678L167.934,95.778L142.758,95.778L142.758,218.422L379.558,218.422L379.558,165.61ZM744.187,192.609C742.513,192.023 740.871,191.307 739.261,190.463C733.961,187.684 729.717,183.907 726.508,179.141L726.503,179.133C724.151,175.605 722.458,171.404 721.472,166.518L697.966,166.518L712.553,184.05L709.11,186.755C705.861,189.305 702.443,191.256 698.857,192.609L744.187,192.609ZM594.305,127.598L571.113,127.598L571.113,189.422L594.305,189.422L594.305,127.598ZM399.17,155.16C399.865,146.312 403.443,138.766 409.885,132.512C416.08,126.498 423.516,123.059 432.211,122.234C407.811,122.229 388.824,122.226 388.735,122.226C387.245,122.226 386.046,122.595 385.238,123.582C384.172,124.883 383.814,126.785 383.814,129.194C383.814,129.194 383.814,137.046 383.814,137.046L399.17,137.046L399.17,155.16ZM511.942,126.978C509.048,126.523 506.692,126.296 504.873,126.296C496.729,126.296 490.218,128.952 485.34,134.264C480.461,139.576 478.022,146.697 478.022,155.626L478.022,189.422L501.214,189.422L501.214,160.091C501.214,153.642 503.323,150.418 507.539,150.418C508.862,150.418 510.33,150.872 511.942,151.782L511.942,126.978ZM436.414,126.296C427.071,126.296 419.216,129.386 412.85,135.566C406.484,141.746 403.3,149.363 403.3,158.417C403.3,167.305 406.484,174.901 412.85,181.205C419.216,187.51 426.885,190.662 435.856,190.662C444.826,190.662 452.485,187.52 458.83,181.236C465.176,174.953 468.349,167.346 468.349,158.417C468.349,149.611 465.217,142.056 458.954,135.752C452.691,129.448 445.178,126.296 436.414,126.296ZM435.794,149.177C438.315,149.177 440.444,150.076 442.181,151.875C443.917,153.673 444.785,155.874 444.785,158.479C444.785,161.042 443.907,163.233 442.15,165.052C440.393,166.871 438.274,167.78 435.794,167.78C433.355,167.78 431.257,166.871 429.5,165.052C427.743,163.233 426.864,161.042 426.864,158.479C426.864,155.874 427.732,153.673 429.469,151.875C431.205,150.076 433.313,149.177 435.794,149.177ZM435.794,153.434C434.513,153.434 433.427,153.903 432.531,154.831C431.574,155.822 431.121,157.044 431.121,158.479C431.121,159.888 431.595,161.095 432.561,162.095C433.466,163.032 434.537,163.524 435.794,163.524C437.081,163.524 438.176,163.039 439.088,162.095C440.054,161.095 440.529,159.888 440.529,158.479C440.529,157.044 440.075,155.822 439.119,154.831C438.215,153.896 437.105,153.434 435.794,153.434ZM239.769,193.011C236.403,191.87 233.2,190.217 230.16,188.049L224.741,193.011L239.769,193.011ZM717.643,162.261C717.808,160.277 717.891,158.83 717.891,157.921C717.891,148.991 714.842,141.478 708.744,135.38C702.647,129.282 695.112,126.234 686.142,126.234C676.964,126.234 669.223,129.355 662.919,135.597C656.614,141.839 653.462,149.487 653.462,158.541C653.462,167.636 656.583,175.263 662.826,181.423C669.068,187.582 676.778,190.662 685.956,190.662C693.479,190.662 700.321,188.244 706.481,183.407L693.273,167.532C691.123,169.847 688.891,171.005 686.576,171.005C683.723,171.005 681.418,169.765 679.662,167.284C677.905,164.804 677.026,161.559 677.026,157.549C677.026,153.704 677.936,150.552 679.755,148.092C681.573,145.632 683.93,144.403 686.824,144.403C691.164,144.403 693.748,146.697 694.575,151.286L682.793,151.286C682.049,153.27 681.677,155.296 681.677,157.363C681.677,158.851 681.946,160.484 682.483,162.261L717.643,162.261ZM747.904,104.778L724.712,104.778L724.712,155.564C724.712,164.37 726.489,171.439 730.045,176.772C732.856,180.947 736.587,184.254 741.237,186.693C745.888,189.132 750.839,190.352 756.089,190.352C756.668,190.352 763.556,190.331 764.755,190.29L764.755,165.92C753.74,166.412 751.779,164.99 750.229,163.13C748.679,161.269 747.904,157.879 747.904,152.96L764.755,152.96L764.755,128.466L747.904,128.466L747.904,104.778ZM654.392,127.598L632.875,127.598L625.682,144.279L619.109,127.598L596.971,127.598L625.496,191.84L654.392,127.598Z"/>
            </g>
        </g>
    </g>
</svg>
